HIERARCHY
ROOT Hips
{
	OFFSET 0.00000 0.00000 0.00000
	CHANNELS 6 Xposition Yposition Zposition Zrotation Yrotation Xrotation 
	JOINT LHipJoint
	{
		OFFSET 0 0 0
		CHANNELS 3 Zrotation Yrotation Xrotation
		JOINT LeftHip
		{
			OFFSET 1.58895 -1.83665 0.71753
			CHANNELS 3 Zrotation Yrotation Xrotation
			JOINT LeftKnee
			{
				OFFSET 2.50528 -6.88321 0.00000
				CHANNELS 3 Zrotation Yrotation Xrotation
				JOINT LeftAnkle
				{
					OFFSET 2.63244 -7.23257 0.00000
					CHANNELS 3 Zrotation Yrotation Xrotation
					JOINT LeftToe
					{
						OFFSET 0.23691 -0.65090 1.72750
						CHANNELS 3 Zrotation Yrotation Xrotation
						End Site
						{
							OFFSET 0.00000 -0.00000 0.92561
						}
					}
				}
			}
		}
	}
	JOINT RHipJoint
	{
		OFFSET 0 0 0
		CHANNELS 3 Zrotation Yrotation Xrotation
		JOINT RightHip
		{
			OFFSET -1.51435 -1.83665 0.71753
			CHANNELS 3 Zrotation Yrotation Xrotation
			JOINT RightKnee
			{
				OFFSET -2.54551 -6.99375 0.00000
				CHANNELS 3 Zrotation Yrotation Xrotation
				JOINT RightAnkle
				{
					OFFSET -2.66027 -7.30903 0.00000
					CHANNELS 3 Zrotation Yrotation Xrotation
					JOINT RightToe
					{
						OFFSET -0.22981 -0.63138 2.03959
						CHANNELS 3 Zrotation Yrotation Xrotation
						End Site
						{
							OFFSET -0.00000 -0.00000 1.07060
						}
					}
				}
			}
		}
	}
	JOINT lowerback
	{
		OFFSET 0 0 0
		CHANNELS 3 Zrotation Yrotation Xrotation
		JOINT Chest
		{
			OFFSET -0.02651 1.86275 -0.11152
			CHANNELS 3 Zrotation Yrotation Xrotation
			JOINT Chest2
			{
				OFFSET 0.01019 1.86224 0.04087
				CHANNELS 3 Zrotation Yrotation Xrotation
				JOINT lowerneck
				{
					OFFSET 0 0 0
					CHANNELS 3 Zrotation Yrotation Xrotation
					JOINT Neck
					{
						OFFSET -0.01926 1.80512 0.08867
						CHANNELS 3 Zrotation Yrotation Xrotation
						JOINT Head
						{
							OFFSET 0.05516 1.76451 -0.38475
							CHANNELS 3 Zrotation Yrotation Xrotation
							End Site
							{
								OFFSET 0.01592 1.82587 -0.14001
							}
						}
					}
				}
				JOINT LeftCollar
				{
					OFFSET 0 0 0
					CHANNELS 3 Zrotation Yrotation Xrotation
					JOINT LeftShoulder
					{
						OFFSET 3.47116 1.51376 0.14491
CHANNELS 3 Zrotation Xrotation Yrotation
						JOINT LeftElbow
						{
OFFSET 0 -4.780950 0.000000
CHANNELS 3 Zrotation Xrotation Yrotation
							JOINT LeftWrist
							{
OFFSET 0 -3.586150 -0.000000
CHANNELS 3 Zrotation Xrotation Yrotation
								JOINT lhand
								{
									OFFSET 0 0 0
CHANNELS 3 Zrotation Xrotation Yrotation
									JOINT LFingers
									{
OFFSET 0 -0.659810 0.000000
CHANNELS 3 Zrotation Xrotation Yrotation
										End Site
										{
OFFSET 0 -0.531960 0.000000
										}
									}
								}
								JOINT LThumb
								{
OFFSET 0 0.000000 0.000000
CHANNELS 3 Zrotation Xrotation Yrotation
									End Site
									{
OFFSET 0 -0.540080 0.540080
									}
								}
							}
						}
					}
				}
				JOINT RightCollar
				{
					OFFSET 0 0 0
					CHANNELS 3 Zrotation Yrotation Xrotation
					JOINT RightShoulder
					{
						OFFSET -3.31725 1.61216 0.35156
CHANNELS 3 Zrotation Xrotation Yrotation
						JOINT RightElbow
						{
OFFSET 0 -4.489130 0.000000
CHANNELS 3 Zrotation Xrotation Yrotation
							JOINT RightWrist
							{
OFFSET 0 -3.705100 0.000000
CHANNELS 3 Zrotation Xrotation Yrotation
								JOINT rhand
								{
									OFFSET 0 0 0
CHANNELS 3 Zrotation Xrotation Yrotation
									JOINT RFingers
									{
OFFSET 0 -0.449140 0.000000
CHANNELS 3 Zrotation Xrotation Yrotation
										End Site
										{
OFFSET 0 -0.362110 0.000000
										}
									}
								}
								JOINT RThumb
								{
OFFSET 0 0.000000 0.000000
CHANNELS 3 Zrotation Xrotation Yrotation
									End Site
									{
OFFSET 0 -0.367630 0.367630
									}
								}
							}
						}
					}
				}
			}
		}
	}
}
MOTION
Frames: 13
Frame Time: 0.008333333333333333
-0.537300 18.680900 5.748700 -1.416500 -3.060900 2.441200 0.000000 0.000000 0.000000 -13.857600 -7.320400 -1.480200 1.258700 7.112100 20.048000 1.863800 8.703900 -30.155000 7.825300 -15.989200 -51.930900 0.000000 0.000000 0.000000 0.000000 0.000000 0.000000 0.000000 0.000000 0.000000 -0.000000 -0.000000 0.000000 -0.000000 -0.000000 0.000000 -0.523500 1.809200 0.330900 -0.381800 2.397300 -2.242200 -0.158400 1.203500 -2.489300 -1.680700 -2.969200 -12.100800 4.898800 -4.972100 22.532400 1.386400 -1.946300 9.243600 0.000000 0.000000 0.000000 -0.635700 10.799700 -30.458800 20.238300 -30.928300 5.653300 8.660400 7.407300 23.826900 0.000000 0.000000 0.000000 -7.125000 0.000000 0.000000 -12.693700 6.393800 -11.493800 0.000000 0.000000 0.000000 0.286100 16.303800 28.605800 -23.403100 -34.526600 -7.365500 -9.360100 26.589100 29.795300 0.000000 0.000000 0.000000 7.125000 0.000000 -0.000000 24.366200 58.404400 -8.304800
-0.537225 18.682070 5.744964 -1.425663 -3.082614 2.450681 0.000000 0.000000 0.000000 -13.846477 -7.361425 -1.496059 1.261098 7.118770 20.067634 1.867870 8.680192 -30.165330 7.799379 -15.969691 -51.836709 0.000000 0.000000 0.000000 0.000000 0.000000 0.000000 0.000000 0.000000 0.000000 0.000000 0.000000 0.000000 0.000000 0.000000 0.000000 -0.535090 1.815780 0.350043 -0.361733 2.406222 -2.240650 -0.132425 1.208357 -2.499743 -1.687924 -2.944878 -12.097749 4.907509 -4.937910 22.524709 1.394721 -1.930137 9.239386 0.000000 0.000000 0.000000 -0.641789 10.776967 -30.515165 20.327797 -31.035277 5.699386 8.501630 7.726757 23.552624 0.000000 0.000000 0.000000 -7.125000 0.000000 0.000000 -12.786824 6.678401 -11.510664 0.000000 0.000000 0.000000 0.262363 16.285705 28.604499 -23.381276 -34.503080 -7.353154 -9.465136 26.642444 29.796358 0.000000 0.000000 0.000000 7.125000 0.000000 0.000000 24.260418 58.428348 -8.280097
-0.536760 18.682949 5.741375 -1.422841 -3.099058 2.475478 0.000000 0.000000 0.000000 -13.853021 -7.413350 -1.517430 1.261793 7.120533 20.072998 1.866835 8.713603 -30.180285 7.776211 -15.952171 -51.752506 0.000000 0.000000 0.000000 0.000000 0.000000 0.000000 0.000000 0.000000 0.000000 0.000000 0.000000 0.000000 0.000000 0.000000 0.000000 -0.556783 1.820965 0.339119 -0.342037 2.413305 -2.230807 -0.099673 1.212576 -2.485310 -1.668932 -2.940470 -12.109488 4.855436 -4.922794 22.519445 1.375271 -1.926898 9.237255 0.000000 0.000000 0.000000 -0.650845 10.702941 -30.515128 20.319290 -31.025157 5.694997 8.451757 7.745294 23.622260 0.000000 0.000000 0.000000 -7.125000 0.000000 0.000000 -12.818372 6.615049 -11.556687 0.000000 0.000000 0.000000 0.220996 16.267052 28.648959 -23.363427 -34.483842 -7.343050 -9.692393 26.682663 29.719630 0.000000 0.000000 0.000000 7.125000 0.000000 0.000000 23.970829 58.408686 -8.162363
-0.535169 18.682926 5.738159 -1.405284 -3.088442 2.468233 0.000000 0.000000 0.000000 -13.869182 -7.386945 -1.537941 1.262053 7.121279 20.075090 1.863354 8.719184 -30.161519 7.794082 -15.965727 -51.817705 0.000000 0.000000 0.000000 0.000000 0.000000 0.000000 0.000000 0.000000 0.000000 0.000000 0.000000 0.000000 0.000000 0.000000 0.000000 -0.557408 1.823489 0.360312 -0.346700 2.416389 -2.216802 -0.104582 1.214047 -2.482589 -1.647189 -2.958888 -12.115035 4.820107 -4.944895 22.518228 1.356816 -1.939076 9.237221 0.000000 0.000000 0.000000 -0.612985 10.644503 -30.576749 20.338154 -31.047545 5.704695 8.357563 7.699460 23.549348 0.000000 0.000000 0.000000 -7.125000 0.000000 0.000000 -12.875176 6.695626 -11.590071 0.000000 0.000000 0.000000 0.210689 16.262504 28.654204 -23.338360 -34.456782 -7.328886 -9.805407 26.727347 29.504746 0.000000 0.000000 0.000000 7.125000 0.000000 0.000000 23.692357 58.238467 -7.962211
-0.534506 18.682507 5.735439 -1.389609 -3.062204 2.459507 0.000000 0.000000 0.000000 -13.871517 -7.334290 -1.573134 1.262589 7.122672 20.079217 1.853278 8.681575 -30.073300 7.808633 -15.976675 -51.870398 0.000000 0.000000 0.000000 0.000000 0.000000 0.000000 0.000000 0.000000 0.000000 0.000000 0.000000 0.000000 0.000000 0.000000 0.000000 -0.559932 1.821050 0.386424 -0.354793 2.412870 -2.216943 -0.112316 1.212235 -2.497132 -1.642251 -2.972735 -12.102352 4.827015 -4.967210 22.521823 1.355876 -1.948486 9.236907 0.000000 0.000000 0.000000 -0.532782 10.666240 -30.716061 20.413746 -31.137605 5.743752 8.256921 7.617952 23.416260 0.000000 0.000000 0.000000 -7.125000 0.000000 0.000000 -12.935352 6.835744 -11.611150 0.000000 0.000000 0.000000 0.214336 16.265452 28.654816 -23.303942 -34.419586 -7.309407 -9.999533 26.850144 29.371491 0.000000 0.000000 0.000000 7.125000 0.000000 0.000000 23.394933 58.159645 -7.809859
-0.533246 18.682841 5.734173 -1.382040 -3.037851 2.455818 0.000000 0.000000 0.000000 -13.884998 -7.350688 -1.580859 1.264518 7.127863 20.094666 1.846789 8.715513 -30.053728 7.806643 -15.975207 -51.863318 0.000000 0.000000 0.000000 0.000000 0.000000 0.000000 0.000000 0.000000 0.000000 0.000000 0.000000 0.000000 0.000000 0.000000 0.000000 -0.556419 1.805226 0.396504 -0.346034 2.391786 -2.222563 -0.105295 1.201802 -2.508758 -1.631938 -2.965923 -12.055800 4.815971 -4.957501 22.523550 1.352158 -1.945018 9.227897 0.000000 0.000000 0.000000 -0.516887 10.662657 -30.713074 20.432172 -31.159536 5.753329 8.333585 7.630052 23.371582 0.000000 0.000000 0.000000 -7.125000 0.000000 0.000000 -12.887727 6.872056 -11.556803 0.000000 0.000000 0.000000 0.188496 16.279569 28.702861 -23.306492 -34.422206 -7.310823 -9.932402 26.750211 29.339711 0.000000 0.000000 0.000000 7.125000 0.000000 0.000000 23.439060 58.116163 -7.800723
-0.531133 18.684331 5.732786 -1.389530 -3.006025 2.462050 0.000000 0.000000 0.000000 -13.888021 -7.416068 -1.584330 1.265978 7.131839 20.106518 1.855224 8.737003 -30.121683 7.825552 -15.989448 -51.931977 0.000000 0.000000 0.000000 0.000000 0.000000 0.000000 0.000000 0.000000 0.000000 0.000000 0.000000 0.000000 0.000000 0.000000 0.000000 -0.523926 1.796706 0.396254 -0.334418 2.381257 -2.227295 -0.111261 1.195992 -2.512653 -1.664845 -2.971198 -12.031547 4.834190 -4.962888 22.537677 1.363707 -1.948558 9.229754 0.000000 0.000000 0.000000 -0.522674 10.616598 -30.632710 20.412846 -31.136534 5.743331 8.351670 7.787788 23.420517 0.000000 0.000000 0.000000 -7.125000 0.000000 0.000000 -12.877146 6.822357 -11.559561 0.000000 0.000000 0.000000 0.169580 16.316149 28.723450 -23.326897 -34.444272 -7.322318 -9.885253 26.710202 29.360270 0.000000 0.000000 0.000000 7.125000 0.000000 0.000000 23.502326 58.124691 -7.828265
-0.530285 18.683910 5.730951 -1.392905 -2.978886 2.474476 0.000000 0.000000 0.000000 -13.884695 -7.440590 -1.608308 1.266472 7.133287 20.110790 1.852211 8.744423 -30.107202 7.840302 -16.000541 -51.985517 0.000000 0.000000 0.000000 0.000000 0.000000 0.000000 0.000000 0.000000 0.000000 0.000000 0.000000 0.000000 0.000000 0.000000 0.000000 -0.500778 1.800295 0.391936 -0.324524 2.386728 -2.231669 -0.114144 1.198392 -2.514251 -1.715064 -2.992324 -12.059836 4.841445 -4.985909 22.587709 1.371697 -1.961384 9.254811 0.000000 0.000000 0.000000 -0.495582 10.557955 -30.651729 20.390445 -31.109933 5.731721 8.325883 7.779237 23.526697 0.000000 0.000000 0.000000 -7.125000 0.000000 0.000000 -12.894385 6.720934 -11.601845 0.000000 0.000000 0.000000 0.164334 16.313491 28.695374 -23.281430 -34.395100 -7.296631 -9.959790 26.848446 29.354564 0.000000 0.000000 0.000000 7.125000 0.000000 0.000000 23.422381 58.135591 -7.805861
-0.530200 18.683215 5.729440 -1.377462 -2.959718 2.475366 0.000000 0.000000 0.000000 -13.892873 -7.420590 -1.627067 1.266115 7.132244 20.107729 1.845654 8.718803 -30.048831 7.828403 -15.991578 -51.942325 0.000000 0.000000 0.000000 0.000000 0.000000 0.000000 0.000000 0.000000 0.000000 0.000000 0.000000 0.000000 0.000000 0.000000 0.000000 -0.519477 1.783565 0.393038 -0.296277 2.364585 -2.237031 -0.074376 1.188015 -2.522317 -1.732691 -2.995770 -12.054622 4.778188 -4.973472 22.620740 1.354546 -1.963348 9.263323 0.000000 0.000000 0.000000 -0.521348 10.539580 -30.636691 20.385193 -31.103693 5.728996 8.458026 7.679166 23.606287 0.000000 0.000000 0.000000 -7.125000 0.000000 0.000000 -12.814268 6.630050 -11.548993 0.000000 0.000000 0.000000 0.116167 16.306662 28.710585 -23.248268 -34.359127 -7.277878 -9.831849 26.866935 29.395267 0.000000 0.000000 0.000000 7.125000 0.000000 0.000000 23.582604 58.144849 -7.868523
-0.530017 18.683642 5.727966 -1.374407 -2.954131 2.470844 0.000000 0.000000 0.000000 -13.903870 -7.490738 -1.597083 1.265275 7.130045 20.101336 1.853422 8.718675 -30.098013 7.813343 -15.980296 -51.887620 0.000000 0.000000 0.000000 0.000000 0.000000 0.000000 0.000000 0.000000 0.000000 0.000000 0.000000 0.000000 0.000000 0.000000 0.000000 -0.537025 1.766406 0.388561 -0.260463 2.342244 -2.239928 -0.027261 1.177651 -2.524840 -1.742905 -2.992853 -12.001795 4.712547 -4.950732 22.607156 1.337137 -1.961873 9.246124 0.000000 0.000000 0.000000 -0.577541 10.547450 -30.557889 20.383692 -31.101853 5.728212 8.540211 7.756898 23.586243 0.000000 0.000000 0.000000 -7.125000 0.000000 0.000000 -12.763647 6.641580 -11.497985 0.000000 0.000000 0.000000 0.074657 16.316980 28.726085 -23.252968 -34.364313 -7.280563 -9.734381 26.798157 29.366949 0.000000 0.000000 0.000000 7.125000 0.000000 0.000000 23.660052 58.097963 -7.869308
-0.529155 18.683845 5.726382 -1.376913 -2.964067 2.465557 0.000000 0.000000 0.000000 -13.905505 -7.497976 -1.588943 1.264755 7.128609 20.096982 1.856127 8.724523 -30.119216 7.814673 -15.981255 -51.892312 0.000000 0.000000 0.000000 0.000000 0.000000 0.000000 0.000000 0.000000 0.000000 0.000000 0.000000 0.000000 0.000000 0.000000 0.000000 -0.522088 1.775277 0.409739 -0.254461 2.354321 -2.248461 -0.030648 1.183452 -2.545212 -1.742975 -3.000363 -11.955290 4.713438 -4.960978 22.595651 1.336862 -1.967472 9.233745 0.000000 0.000000 0.000000 -0.564539 10.524186 -30.572935 20.353030 -31.065359 5.712406 8.571121 7.780146 23.534808 0.000000 0.000000 0.000000 -7.125000 0.000000 0.000000 -12.743949 6.688920 -11.467315 0.000000 0.000000 0.000000 0.129825 16.302979 28.623932 -23.229626 -34.338945 -7.267386 -9.723578 26.822808 29.292885 0.000000 0.000000 0.000000 7.125000 0.000000 0.000000 23.615429 58.028386 -7.813226
-0.527661 18.683970 5.726210 -1.355113 -2.975227 2.462121 0.000000 0.000000 0.000000 -13.933114 -7.471398 -1.596966 1.265399 7.130319 20.102056 1.856790 8.715263 -30.117623 7.813101 -15.980040 -51.886542 0.000000 0.000000 0.000000 0.000000 0.000000 0.000000 0.000000 0.000000 0.000000 0.000000 0.000000 0.000000 0.000000 0.000000 0.000000 -0.519257 1.779921 0.407877 -0.262377 2.360331 -2.254168 -0.040609 1.186301 -2.549682 -1.716657 -2.995944 -11.944501 4.694310 -4.957076 22.615749 1.326579 -1.965252 9.237367 0.000000 0.000000 0.000000 -0.519592 10.535441 -30.650444 20.371737 -31.087562 5.722058 8.560133 7.711891 23.484349 0.000000 0.000000 0.000000 -7.125000 0.000000 0.000000 -12.749972 6.739430 -11.460250 0.000000 0.000000 0.000000 0.183567 16.320851 28.547662 -23.248800 -34.359748 -7.278219 -9.673649 26.842930 29.443345 0.000000 0.000000 0.000000 7.125000 0.000000 0.000000 23.779359 58.154182 -7.944775
-0.527300 18.684283 5.726111 -1.343820 -2.986371 2.457920 0.000000 0.000000 0.000000 -13.942983 -7.434279 -1.614313 1.266361 7.132990 20.109880 1.850086 8.716440 -30.075747 7.825273 -15.989249 -51.930850 0.000000 0.000000 0.000000 0.000000 0.000000 0.000000 0.000000 0.000000 0.000000 0.000000 0.000000 0.000000 0.000000 0.000000 0.000000 -0.519788 1.774586 0.408897 -0.262883 2.353180 -2.267684 -0.041017 1.182787 -2.564096 -1.666436 -2.995206 -11.937853 4.632781 -4.953783 22.643955 1.297577 -1.965790 9.242869 0.000000 0.000000 0.000000 -0.466130 10.613149 -30.758050 20.429644 -31.156459 5.751978 8.498624 7.642517 23.402546 0.000000 0.000000 0.000000 -7.125000 0.000000 0.000000 -12.786632 6.825622 -11.473045 0.000000 0.000000 0.000000 0.201216 16.381513 28.574428 -23.298891 -34.414009 -7.306549 -9.562707 26.761680 29.632693 0.000000 0.000000 0.000000 7.125000 0.000000 0.000000 24.035554 58.301633 -8.123268
